<svg width="45" height="44" viewBox="0 0 45 44" fill="none" xmlns="http://www.w3.org/2000/svg">
<path d="M3.46562 37.5832V10.0833H12.3784L15.77 6.41667H26.0296V9.16662H16.9687L13.6053 12.8333H6.21553V34.8333H35.5489V18.6859H38.2988V37.5832H3.46562ZM35.5489 12.8333V9.16662H31.8822V6.41667H35.5489V2.75H38.2988V6.41667H41.9655V9.16662H38.2988V12.8333H35.5489ZM20.8822 31.3781C22.9858 31.3781 24.7692 30.6465 26.2323 29.1834C27.6954 27.7203 28.427 25.9369 28.427 23.8333C28.427 21.7297 27.6954 19.9463 26.2323 18.4832C24.7692 17.02 22.9858 16.2885 20.8822 16.2885C18.7786 16.2885 16.9952 17.02 15.5321 18.4832C14.0689 19.9463 13.3374 21.7297 13.3374 23.8333C13.3374 25.9369 14.0689 27.7203 15.5321 29.1834C16.9952 30.6465 18.7786 31.3781 20.8822 31.3781ZM20.8822 28.6282C19.5283 28.6282 18.3907 28.1675 17.4694 27.2461C16.548 26.3248 16.0873 25.1871 16.0873 23.8333C16.0873 22.4794 16.548 21.3418 17.4694 20.4204C18.3907 19.4991 19.5283 19.0384 20.8822 19.0384C22.2361 19.0384 23.3737 19.4991 24.295 20.4204C25.2164 21.3418 25.6771 22.4794 25.6771 23.8333C25.6771 25.1871 25.2164 26.3248 24.295 27.2461C23.3737 28.1675 22.2361 28.6282 20.8822 28.6282Z" fill="white"/>
</svg>
