<svg width="39" height="39" viewBox="0 0 39 39" fill="none" xmlns="http://www.w3.org/2000/svg">
<path fill-rule="evenodd" clip-rule="evenodd" d="M35.3333 19.8249C35.3333 28.5694 28.2445 35.6582 19.5 35.6582C10.7555 35.6582 3.66666 28.5694 3.66666 19.8249C3.66666 11.0804 10.7555 3.99158 19.5 3.99158C28.2445 3.99158 35.3333 11.0804 35.3333 19.8249ZM9.14587 18.3735C9.73607 13.1747 14.1547 9.13741 19.5151 9.13741C22.9009 9.13741 25.9108 10.7491 27.8157 13.2421C28.2139 13.7633 28.1143 14.5085 27.5932 14.9067C27.0721 15.3049 26.3268 15.2053 25.9286 14.6841C24.4541 12.7544 22.1303 11.5124 19.5151 11.5124C15.4659 11.5124 12.1159 14.4925 11.541 18.3735H12.1161C12.5966 18.3735 13.0297 18.663 13.2134 19.107C13.3971 19.5509 13.2952 20.0618 12.9553 20.4013L11.1055 22.2485C10.6419 22.7115 9.8909 22.7115 9.42729 22.2485L7.57754 20.4013C7.23758 20.0618 7.13569 19.5509 7.31939 19.107C7.5031 18.663 7.93621 18.3735 8.41666 18.3735H9.14587ZM29.5727 17.4013C29.1091 16.9383 28.3581 16.9383 27.8945 17.4013L26.0447 19.2485C25.7048 19.588 25.6029 20.0989 25.7866 20.5429C25.9703 20.9868 26.4034 21.2763 26.8839 21.2763H27.459C26.8841 25.1573 23.5342 28.1374 19.4849 28.1374C16.8819 28.1374 14.5677 26.9069 13.0921 24.9926C12.6917 24.4732 11.946 24.3767 11.4266 24.7771C10.9072 25.1775 10.8107 25.9231 11.211 26.4426C13.1174 28.9157 16.1149 30.5124 19.4849 30.5124C24.8453 30.5124 29.2639 26.4751 29.8541 21.2763H30.5834C31.0638 21.2763 31.4969 20.9868 31.6806 20.5429C31.8643 20.0989 31.7624 19.588 31.4225 19.2485L29.5727 17.4013Z" fill="#2E5FDA"/>
</svg>
