<svg width="25" height="24" viewBox="0 0 25 24" fill="none" xmlns="http://www.w3.org/2000/svg">
<path d="M14 11.25H11.25V8.2C11.25 8.10303 11.2501 8.04531 11.2513 8.0018C11.252 7.97419 11.2531 7.96219 11.2533 7.9593C11.2708 7.85362 11.3536 7.77077 11.4593 7.75334C11.4622 7.75305 11.4742 7.75201 11.5018 7.75126C11.5453 7.75007 11.603 7.75 11.7 7.75H14C14.9665 7.75 15.75 8.5335 15.75 9.5C15.75 10.4665 14.9665 11.25 14 11.25Z" fill="#555555"/>
<path fill-rule="evenodd" clip-rule="evenodd" d="M22.5 12C22.5 17.5228 18.0228 22 12.5 22C6.97715 22 2.5 17.5228 2.5 12C2.5 6.47715 6.97715 2 12.5 2C18.0228 2 22.5 6.47715 22.5 12ZM8.75 14C8.75 13.5858 9.08579 13.25 9.5 13.25H9.75V12.75H9.5C9.08579 12.75 8.75 12.4142 8.75 12C8.75 11.5858 9.08579 11.25 9.5 11.25H9.75L9.74997 8.16151C9.74979 8.01598 9.74961 7.86471 9.77155 7.72624C9.89015 6.97743 10.4774 6.39015 11.2262 6.27155C11.3647 6.24961 11.516 6.24979 11.6615 6.24997L14 6.25C15.7949 6.25 17.25 7.70507 17.25 9.5C17.25 11.2949 15.7949 12.75 14 12.75H11.25V13.25H12.5C12.9142 13.25 13.25 13.5858 13.25 14C13.25 14.4142 12.9142 14.75 12.5 14.75H11.25V17C11.25 17.4142 10.9142 17.75 10.5 17.75C10.0858 17.75 9.75 17.4142 9.75 17V14.75H9.5C9.08579 14.75 8.75 14.4142 8.75 14Z" fill="#555555"/>
</svg>
