<svg width="13" height="14" viewBox="0 0 13 14" fill="none" xmlns="http://www.w3.org/2000/svg">
<path fill-rule="evenodd" clip-rule="evenodd" d="M0.728823 1.05384C1.03392 0.748738 1.52858 0.748738 1.83368 1.05384L12.7712 11.9913C13.0763 12.2964 13.0763 12.7911 12.7712 13.0962C12.4661 13.4013 11.9714 13.4013 11.6663 13.0962L0.728823 2.15869C0.423726 1.85359 0.423726 1.35893 0.728823 1.05384Z" fill="#7F7F7F"/>
<path fill-rule="evenodd" clip-rule="evenodd" d="M12.7712 1.05384C13.0763 1.35893 13.0763 1.85359 12.7712 2.15869L1.83368 13.0962C1.52858 13.4013 1.03392 13.4013 0.728823 13.0962C0.423726 12.7911 0.423726 12.2964 0.728823 11.9913L11.6663 1.05384C11.9714 0.748738 12.4661 0.748738 12.7712 1.05384Z" fill="#7F7F7F"/>
</svg>
