<svg width="16" height="17" viewBox="0 0 16 17" fill="none" xmlns="http://www.w3.org/2000/svg">
<path fill-rule="evenodd" clip-rule="evenodd" d="M0.292893 0.792893C0.683417 0.402369 1.31658 0.402369 1.70711 0.792893L15.7071 14.7929C16.0976 15.1834 16.0976 15.8166 15.7071 16.2071C15.3166 16.5976 14.6834 16.5976 14.2929 16.2071L0.292893 2.20711C-0.0976311 1.81658 -0.0976311 1.18342 0.292893 0.792893Z" fill="#404040" fill-opacity="0.8"/>
<path fill-rule="evenodd" clip-rule="evenodd" d="M15.7071 0.792893C16.0976 1.18342 16.0976 1.81658 15.7071 2.20711L1.70711 16.2071C1.31658 16.5976 0.683417 16.5976 0.292893 16.2071C-0.0976311 15.8166 -0.0976311 15.1834 0.292893 14.7929L14.2929 0.792893C14.6834 0.402369 15.3166 0.402369 15.7071 0.792893Z" fill="#404040" fill-opacity="0.8"/>
</svg>
