<svg width="10" height="10" viewBox="0 0 10 10" fill="none" xmlns="http://www.w3.org/2000/svg">
<path fill-rule="evenodd" clip-rule="evenodd" d="M0.51516 0.51516C0.742405 0.287915 1.11084 0.287915 1.33809 0.51516L9.48464 8.66171C9.71188 8.88896 9.71188 9.25739 9.48464 9.48464C9.25739 9.71188 8.88896 9.71188 8.66171 9.48464L0.51516 1.33809C0.287915 1.11084 0.287915 0.742405 0.51516 0.51516Z" fill="white"/>
<path fill-rule="evenodd" clip-rule="evenodd" d="M9.48464 0.51516C9.71188 0.742405 9.71188 1.11084 9.48464 1.33809L1.33809 9.48464C1.11084 9.71188 0.742405 9.71188 0.51516 9.48464C0.287915 9.25739 0.287915 8.88896 0.51516 8.66171L8.66171 0.51516C8.88896 0.287915 9.25739 0.287915 9.48464 0.51516Z" fill="white"/>
</svg>
