<svg width="23" height="17" viewBox="0 0 23 17" fill="none" xmlns="http://www.w3.org/2000/svg">
<path d="M2.28755 16.5041H5.68147V8.26164L0.833008 4.62528V15.0495C0.833008 15.8544 1.48513 16.5041 2.28755 16.5041Z" fill="#4285F4"/>
<path d="M17.3179 16.5041H20.7118C21.5166 16.5041 22.1663 15.8519 22.1663 15.0495V4.62528L17.3179 8.26164" fill="#34A853"/>
<path d="M17.3179 1.95867V8.26164L22.1663 4.62528V2.68594C22.1663 0.887156 20.113 -0.138297 18.6755 0.940489" fill="#FBBC05"/>
<path d="M5.68147 8.26164L5.68136 1.95862L11.4995 6.32225L17.3179 1.95867V8.26164L11.4995 12.6253" fill="#EA4335"/>
<path d="M0.833008 2.68594V4.62528L5.68147 8.26164L5.68136 1.95862L4.3239 0.940489C2.88391 -0.138297 0.833008 0.887156 0.833008 2.68594Z" fill="#C5221F"/>
</svg>
