<svg width="25" height="24" viewBox="0 0 25 24" fill="none" xmlns="http://www.w3.org/2000/svg">
<path fill-rule="evenodd" clip-rule="evenodd" d="M10.5 4H14.5C18.2712 4 20.1569 4 21.3284 5.17157C22.5 6.34315 22.5 8.22876 22.5 12C22.5 15.7712 22.5 17.6569 21.3284 18.8284C20.1569 20 18.2712 20 14.5 20H10.5C6.72876 20 4.84315 20 3.67157 18.8284C2.5 17.6569 2.5 15.7712 2.5 12C2.5 8.22876 2.5 6.34315 3.67157 5.17157C4.84315 4 6.72876 4 10.5 4ZM13.75 9C13.75 8.58579 14.0858 8.25 14.5 8.25H19.5C19.9142 8.25 20.25 8.58579 20.25 9C20.25 9.41421 19.9142 9.75 19.5 9.75H14.5C14.0858 9.75 13.75 9.41421 13.75 9ZM14.75 12C14.75 11.5858 15.0858 11.25 15.5 11.25H19.5C19.9142 11.25 20.25 11.5858 20.25 12C20.25 12.4142 19.9142 12.75 19.5 12.75H15.5C15.0858 12.75 14.75 12.4142 14.75 12ZM15.75 15C15.75 14.5858 16.0858 14.25 16.5 14.25H19.5C19.9142 14.25 20.25 14.5858 20.25 15C20.25 15.4142 19.9142 15.75 19.5 15.75H16.5C16.0858 15.75 15.75 15.4142 15.75 15ZM11.5 9C11.5 10.1046 10.6046 11 9.5 11C8.39543 11 7.5 10.1046 7.5 9C7.5 7.89543 8.39543 7 9.5 7C10.6046 7 11.5 7.89543 11.5 9ZM9.5 17C13.5 17 13.5 16.1046 13.5 15C13.5 13.8954 11.7091 13 9.5 13C7.29086 13 5.5 13.8954 5.5 15C5.5 16.1046 5.5 17 9.5 17Z" fill="#555555"/>
</svg>
