<svg width="10" height="16" viewBox="0 0 10 16" fill="none" xmlns="http://www.w3.org/2000/svg">
<path d="M2.44709 0.391799L9.57813 7.05298C9.7118 7.17682 9.81791 7.32417 9.89032 7.48652C9.96272 7.64886 10 7.82299 10 7.99886C10 8.17473 9.96272 8.34886 9.89032 8.51121C9.81791 8.67356 9.7118 8.8209 9.57813 8.94475L2.44709 15.6059C2.3145 15.7308 2.15676 15.8299 1.98296 15.8975C1.80917 15.9652 1.62275 16 1.43448 16C1.2462 16 1.05979 15.9652 0.885992 15.8975C0.712195 15.8299 0.554455 15.7308 0.42187 15.6059C0.288194 15.4821 0.182092 15.3347 0.109686 15.1724C0.0372789 15.01 0 14.8359 0 14.66C0 14.4842 0.0372789 14.31 0.109686 14.1477C0.182092 13.9853 0.288194 13.838 0.42187 13.7142L6.55457 7.99886L0.42187 2.28357C0.15331 2.03271 0.00243465 1.69246 0.00243465 1.33769C0.00243465 1.16202 0.0394746 0.988072 0.111442 0.825776C0.183409 0.663481 0.288893 0.516015 0.42187 0.391799C0.69043 0.140934 1.05468 0 1.43448 0C1.62254 0 1.80875 0.0346007 1.9825 0.101826C2.15624 0.169051 2.31411 0.267584 2.44709 0.391799Z" fill="#2E5FDA"/>
</svg>
