<svg width="38" height="39" viewBox="0 0 38 39" fill="none" xmlns="http://www.w3.org/2000/svg">
<path fill-rule="evenodd" clip-rule="evenodd" d="M19 2.80408C18.3442 2.80408 17.8125 3.33574 17.8125 3.99158V21.3648L15.1516 18.2604C14.7248 17.7625 13.9751 17.7048 13.4772 18.1316C12.9792 18.5584 12.9216 19.3081 13.3484 19.8061L18.0984 25.3477C18.324 25.6109 18.6533 25.7624 19 25.7624C19.3466 25.7624 19.676 25.6109 19.9016 25.3477L24.6516 19.8061C25.0784 19.3081 25.0208 18.5584 24.5228 18.1316C24.0249 17.7048 23.2752 17.7625 22.8484 18.2604L20.1875 21.3648L20.1875 3.99158C20.1875 3.33574 19.6558 2.80408 19 2.80408Z" fill="#2E5FDA"/>
<path d="M22.5624 15.0749V15.6739C23.7239 15.2645 25.0661 15.4693 26.0684 16.3284C27.5622 17.6088 27.7352 19.8578 26.4548 21.3517L21.7048 26.8934C21.028 27.683 20.0399 28.1374 18.9999 28.1374C17.9599 28.1374 16.9719 27.683 16.2951 26.8934L11.5451 21.3517C10.2646 19.8578 10.4376 17.6088 11.9315 16.3284C12.9337 15.4693 14.2759 15.2645 15.4374 15.6739V15.0749H12.6667C8.18831 15.0749 5.94914 15.0749 4.5579 16.4662C3.16666 17.8574 3.16666 20.0966 3.16666 24.5749V26.1583C3.16666 30.6366 3.16666 32.8758 4.5579 34.267C5.94914 35.6582 8.18831 35.6582 12.6666 35.6582H25.3333C29.8116 35.6582 32.0508 35.6582 33.4421 34.267C34.8333 32.8758 34.8333 30.6366 34.8333 26.1583V24.5749C34.8333 20.0966 34.8333 17.8574 33.4421 16.4662C32.0508 15.0749 29.8117 15.0749 25.3333 15.0749H22.5624Z" fill="#2E5FDA"/>
</svg>
